<svg xmlns="http://www.w3.org/2000/svg" viewBox="0 0 277 110.8"><title>Marvel logo</title><rect width="277" height="110.8" style="fill:#ec1d24"/><path d="M642.45,542V558.8h-31.2V465.12h16.8V542Zm-133.31-30.9a9.25,9.25,0,0,1-4,.94V481.87h.09c1.33,0,11.22.39,11.22,14.9C516.46,504.36,513.09,509.14,509.14,511.06Zm-49.24,18.5,4.65-40.06,4.83,40.06Zm148.42-47.34V465.14H560.75l-7.83,57.06-7.73-57.06H528l1.92,15.23c-2-3.9-9-15.24-24.46-15.24H488.31l-.07,83.17-12.5-83.17H453.27L440.34,551.3V465.14h-21.5l-7.75,48.4-7.55-48.41H382v93.68H399V513.66l7.71,45.16h9l7.6-45.16v45.16h32.66l2-14.41h13.15l2,14.41,32.06,0h0v0h0V528.41l3.93-.58,8.13,31h16.59v0h0l-10.68-36.33c5.41-4,11.52-14.16,9.89-23.87h0c0,.12,10.08,60.26,10.08,60.26l19.72-.06,13.48-84.91v84.91h32V542H593.14V520.49h15.18V503.38H593.14V482.22h15.18Z" transform="translate(-373.5 -456.6)" style="fill:#fefefe"/><path d="M373.5,456.6h63.92V567.4H373.5Z" transform="translate(-373.5 -456.6)" style="fill:#ec1d24"/><path d="M440.62,558.88V465.12H418.87l-7.76,48.44-7.56-48.44H382v93.75h17V513.69l7.62,45.19h9l7.6-45.19v45.19Z" transform="translate(-373.5 -456.6)" style="fill:#fefefe"/></svg>